<svg width="6" height="6" viewBox="0 0 6 6" fill="none" xmlns="http://www.w3.org/2000/svg">
<path d="M5.17756 2.26061C5.2458 2.77119 5.1614 3.29058 4.93501 3.75311C4.70863 4.21564 4.35044 4.60055 3.90571 4.85917C3.46099 5.11779 2.94971 5.2385 2.43651 5.20605C1.92331 5.17361 1.43124 4.98947 1.0225 4.67689C0.613759 4.36432 0.306705 3.93736 0.14016 3.44998C-0.0263858 2.96261 -0.0449456 2.43671 0.0868253 1.93877C0.218596 1.44083 0.494786 0.993205 0.88047 0.652493C1.26615 0.311781 1.74402 0.0932798 2.25365 0.0246073C2.59242 -0.0225362 2.93715 -0.00196939 3.26794 0.0851168C3.59873 0.172203 3.90902 0.324083 4.18089 0.531986C4.45276 0.739889 4.68082 0.999698 4.85189 1.2964C5.02295 1.5931 5.13364 1.92081 5.17756 2.26061Z" fill="#5DBD6D"/>
</svg>
